<?xml version="1.0" encoding="UTF-8" standalone="no"?>
<svg
   version="1.1"
   width="2138"
   height="2350"
   viewBox="-500 -500 2138 2350"
   id="svg8"
   sodipodi:docname="logo-dark.svg"
   inkscape:version="1.4.4 (dcaf3e7, 2026-05-05)"
   inkscape:export-filename="logo-dark.png"
   inkscape:export-xdpi="96"
   inkscape:export-ydpi="96"
   xmlns:inkscape="http://www.inkscape.org/namespaces/inkscape"
   xmlns:sodipodi="http://sodipodi.sourceforge.net/DTD/sodipodi-0.dtd"
   xmlns="http://www.w3.org/2000/svg"
   xmlns:svg="http://www.w3.org/2000/svg">
  <defs
     id="defs8" />
  <sodipodi:namedview
     id="namedview8"
     pagecolor="#ffffff"
     bordercolor="#000000"
     borderopacity="0.25"
     inkscape:showpageshadow="2"
     inkscape:pageopacity="0.0"
     inkscape:pagecheckerboard="true"
     inkscape:deskcolor="#d1d1d1"
     inkscape:zoom="0.34595745"
     inkscape:cx="1068.0504"
     inkscape:cy="1173.5547"
     inkscape:window-width="2300"
     inkscape:window-height="2473"
     inkscape:window-x="2765"
     inkscape:window-y="0"
     inkscape:window-maximized="0"
     inkscape:current-layer="svg8"
     labelstyle="below"
     inkscape:export-bgcolor="#ffffffff" />
  <path
     transform="translate(0,1200)"
     d="M331,-215C325,-252,313,-275,274,-290C290,-323,287,-366,268,-400C262,-358,243,-323,179,-291C105,-254,75,-179,100,-100L50,-100L50,0L438,0C380,-23,338,-85,338,-150C328,-122,300,-100,268,-100C227,-100,193,-134,193,-175C193,-216,227,-250,268,-250C294,-250,318,-236,331,-215Z"
     id="path1"
     style="fill:#808080;fill-opacity:1" />
  <path
     transform="translate(438,1200)"
     d="M0,0L100,0L100,-1000L0,-1000L0,0ZM0,-980L100,-980L100,-1000C100,-1049,147,-1050,150,-1050C85,-1080,30,-1132,0,-1200L0,-980Z"
     id="path2"
     style="fill:#808080;fill-opacity:1" />
  <path
     transform="translate(588,750)"
     style="fill:#d22e1f;fill-opacity:1"
     d="M50,0C78,0,100,-22,100,-50C100,-78,78,-100,50,-100C22,-100,0,-78,0,-50C0,-22,22,0,50,0Z"
     id="path3" />
  <path
     transform="translate(538,1200)"
     d="M-50,0L150,0L150,-250L50,-250L50,-100L-50,-100L-50,0ZM150,-230L150,-400C127,-342,65,-300,0,-300C0,-300,50,-300,50,-250L50,-230L150,-230Z"
     id="path4"
     style="fill:#808080;fill-opacity:1" />
  <path
     transform="translate(738,1350)"
     style="fill:#d22e1f;fill-opacity:1"
     d="M50,0C78,0,100,-22,100,-50C100,-78,78,-100,50,-100C22,-100,0,-78,0,-50C0,-22,22,0,50,0Z"
     id="path5" />
  <path
     transform="translate(688,1200)"
     d="M-50,0L150,0L150,-250L50,-250L50,-100L-50,-100L-50,0ZM150,-230L150,-400C127,-342,65,-300,0,-300C0,-300,50,-300,50,-250L50,-230L150,-230Z"
     id="path6"
     style="fill:#808080;fill-opacity:1" />
  <path
     transform="translate(838,1200)"
     d="M150,0L150,-1000L50,-1000L50,0L150,0ZM150,-980L150,-1200C120,-1132,65,-1080,0,-1050C3,-1050,50,-1049,50,-1000L50,-980L150,-980ZM-50,-100L-50,0L50,0L50,-100L-50,-100Z"
     id="path7"
     style="fill:#808080;fill-opacity:1" />
  <path
     transform="translate(1038,1200)"
     d="M0,0L100,0L100,-1000L0,-1000L0,0ZM0,-980L100,-980L100,-1000C100,-1049,147,-1050,150,-1050C85,-1080,30,-1132,0,-1200L0,-980Z"
     id="path8"
     style="fill:#808080;fill-opacity:1" />
</svg>
